<svg xmlns="http://www.w3.org/2000/svg" width="16" height="16" viewBox="0 0 16 16">
    <g fill="none" fill-rule="evenodd">
        <g fill="#E6282B">
            <g>
                <g>
                    <path d="M15 0c.552 0 1 .448 1 1v14c0 .552-.448 1-1 1H1c-.552 0-1-.448-1-1V1c0-.552.448-1 1-1h14zM8.694 2.545L6.045 13.14l1.261.315L9.955 2.86l-1.261-.315zm-3.61 2.202L1.83 8l3.252 3.253.92-.92L3.669 8l2.334-2.333-.92-.92zm5.833 0l-.92.92L12.331 8l-2.334 2.333.92.92L14.169 8l-3.252-3.253z" transform="translate(-363.000000, -235.000000) translate(296.000000, 232.000000) translate(67.000000, 3.000000)"/>
                </g>
            </g>
        </g>
    </g>
</svg>
