<svg xmlns="http://www.w3.org/2000/svg" width="16" height="16" viewBox="0 0 16 16">
    <g fill="none" fill-rule="evenodd">
        <g fill="#818181">
            <g>
                <g>
                    <path d="M15 0c.552 0 1 .448 1 1v14c0 .552-.448 1-1 1H1c-.552 0-1-.448-1-1V1c0-.552.448-1 1-1h14zM8.35 7.5h-1.5v4.75c0 .327-.093.583-.28.77-.187.187-.443.28-.77.28-.14 0-.262-.02-.365-.06-.103-.04-.192-.087-.265-.14l-.115-.095-.105-.105-.9.9c.133.167.29.31.47.43.153.107.347.203.58.29.233.087.5.13.8.13.367 0 .7-.058 1-.175.3-.117.558-.28.775-.49.217-.21.383-.462.5-.755.093-.235.15-.49.168-.768l.007-.212V7.5zm3.8-.15c-.373 0-.712.055-1.015.165-.303.11-.562.258-.775.445-.213.187-.377.405-.49.655-.113.25-.17.512-.17.785 0 .42.085.755.255 1.005.17.25.383.452.64.605.257.153.533.275.83.365.297.09.573.178.83.265.257.087.47.19.64.31.17.12.255.287.255.5 0 .253-.097.467-.29.64-.193.173-.48.26-.86.26-.267 0-.502-.038-.705-.115-.203-.077-.375-.162-.515-.255-.111-.076-.212-.157-.302-.244l-.128-.136-.9.9c.187.213.41.407.67.58.22.147.495.278.825.395.33.117.715.175 1.155.175.427 0 .803-.057 1.13-.17.327-.113.603-.268.83-.465.227-.197.398-.428.515-.695.117-.267.175-.557.175-.87 0-.413-.085-.747-.255-1-.17-.253-.383-.457-.64-.61-.257-.153-.533-.275-.83-.365-.297-.09-.573-.178-.83-.265-.257-.087-.47-.188-.64-.305-.17-.117-.255-.285-.255-.505 0-.2.083-.375.25-.525.167-.15.4-.225.7-.225.2 0 .38.032.54.095.16.063.297.132.41.205.084.058.164.121.24.191l.11.109.9-.95c-.16-.173-.35-.33-.57-.47-.193-.12-.433-.23-.72-.33s-.623-.15-1.01-.15z" transform="translate(-558.000000, -235.000000) translate(475.000000, 232.000000) translate(83.000000, 3.000000)"/>
                </g>
            </g>
        </g>
    </g>
</svg>
