<svg xmlns="http://www.w3.org/2000/svg" width="34" height="34" viewBox="0 0 34 34">
    <g fill="none" fill-rule="evenodd">
        <g>
            <g>
                <path fill="#FFF" d="M17 0c9.389 0 17 7.611 17 17s-7.611 17-17 17S0 26.389 0 17 7.611 0 17 0zm4.375 6.58c-1.701-.529-3.638-.563-5.196-.428-1.874.162-3.703.708-5.312 1.78-1.863 1.242-3.163 2.86-3.482 5.154-.239 1.726.322 3.18 1.288 4.59.132.193.434.504.65.504.21 0 .354-.213.291-.414-.108-.348-.243-.819-.283-.966-.72-2.634.17-5.294 2.311-6.91 2.453-1.852 7.343-2.112 9.98-.532 1.972 1.181 2.98 3.393 2.275 5.502-.154.46-.407.758-.452 1.208-.036.36.062 1.54.104 2.323.017.326.055.652.055.979-.002.415-.24.677-.677.677-.86 0-.916.366-1.033.957-.175.888-.296 1.804-.617 2.64-.667 1.738-2.63 3.029-4.123 2.078.175-.184.334-.36.453-.495.161-.182.313-.372.451-.572.757-1.093 1.063-2.144 1.155-2.538.33-1.41-.146-3.075-1.662-3.666l-.212-.082.201-.107c.22-.117.418-.232.603-.352 2.43-1.568 3.031-2.9 3.288-3.469.188-.417.49-1.673-.18-2.72-.404-.661-1.14-1.279-2.284-1.557-1.17-.285-2.434-.254-3.578-.05-.664.117-2.13.527-3.095 1.44-1.04.983-1.541 2.442-.982 3.178.06.08.15.073.187.067.095-.017.176-.09.205-.184.464-1.518 1.635-2.555 3.386-3 1.424-.362 2.73-.223 3.289-.107.747.156 1.307.593 1.499 1.193.182.569.192 1.55-1.14 2.992-1.564 1.692-3.57 2.414-4.66 2.693l-.213.055.091-.2c.228-.497.453-.973.67-1.434l.333-.708.236-.478c.252-.51.617-1.25.741-1.494.173-.341.092-.73-.192-.925l-.376-.258c-.126-.087-.285-.113-.437-.072-.15.04-.272.14-.336.275-.168.35-2.751 5.98-3.005 6.546-.085.191-.069.409.044.583.187.288.423.546.7.766.067.053.15.072.232.051.078-.019.142-.073.175-.147l.183-.414.103-.23.253-.57.04-.015c.68-.264 1.417-.405 2.19-.42.816-.018 1.404.191 1.744.618.179.224.41.68.287 1.312-.102.52-.35 1.135-.676 1.74-.052.1-.18.322-.19.338-.318.532-.671.973-1.029 1.34-.117-.105-.473-.422-.97-.799-.484-.368-1.351-.887-2.088-1.124-.663-.214-1.174-.32-1.997-.248-1.316.113-2.374.945-2.555 2.286-.131.965.376 2.188 1.594 2.745.411.17.996.357 1.692.4.798.05 1.758-.082 2.645-.322.82-.222 1.587-.687 2.149-1.03.11.06.435.276.775.434.37.172.757.286.904.325 1.743.465 4.052-.026 5.143-2.025.64-1.175 1.073-2.465 1.577-3.711.138-.342.292-.85.439-1 .136-.14.347-.167.966-.167.496 0 .695-.297.634-.787-.11-.878-.267-1.756-.35-2.637-.03-.315-.042-.661.054-.955 1.35-4.103-.71-8.15-4.883-9.45zM10.927 24.013c1.596-.127 2.639.579 3.626 1.34l.144.116-.126.08c-1.115.7-2.044 1.004-3.131 1.004-.106 0-.82.008-1.338-.327-.355-.23-.598-.608-.598-.95 0-.677.519-1.191 1.423-1.263z" transform="translate(-208.000000, -15.000000) translate(208.000000, 15.000000)"/>
            </g>
        </g>
    </g>
</svg>
